# xmcd
#
# Track frame offsets:
#	150
#	12092
#	24387
#	36921
#	47314
#	62576
#	75255
#	91657
#	105514
#	116574
#	126224
#	139973
#	153722
#	165468
#	179485
#
# Disc length: 2555 seconds
#
# Revision: 1
# Processed by: cddbd v1.5.2PL0 Copyright (c) Steve Scherf et al.
# Submitted via: audiograbber 1.83.01
#
DISCID=b009f90f
DTITLE=B.B.King - Beale Street Blues Boys 07
DYEAR=1959
DGENRE=Blues
TTITLE0=B.B.King - We Can't Make it (King - Josea)
TTITLE1=B.B.King - Sugar Mama (Hooker)
TTITLE2=B.B.King - A Lonely Lover's Plea (King - Taub - Ling)
TTITLE3=B.B.King - I Am (Shuman - Edwards)
TTITLE4=B.B.King - Precious Lord (Dorsey)
TTITLE5=B.B.King - Working On a Building (Bowles - Hoyle)
TTITLE6=B.B.King - I Am Willing to Run All The Way (Traditional)
TTITLE7=B.B.King - Save a Seat for Me (Brownlee)
TTITLE8=B.B.King - Old Time Religion (Traditional)
TTITLE9=B.B.King - Swing Low Sweet Chariot (Traditional)
TTITLE10=B.B.King - Servant's Prayer (Dorsey)
TTITLE11=B.B.King - Jesus Gave Me Water (Campbell)
TTITLE12=B.B.King - I Never Heard a Man (Woodard)
TTITLE13=B.B.King - Army of the Lord (Traditional)
TTITLE14=B.B.King - Worry, Worry, Worry (Taub - Davis)
EXTD=
EXTT0=
EXTT1=
EXTT2=
EXTT3=
EXTT4=
EXTT5=
EXTT6=
EXTT7=
EXTT8=
EXTT9=
EXTT10=
EXTT11=
EXTT12=
EXTT13=
EXTT14=arr.by Ledeburgh
PLAYORDER=
